<svg width="29" height="28" viewBox="0 0 29 28" fill="none" xmlns="http://www.w3.org/2000/svg">
<path d="M14.1667 0C12.3063 0 10.4641 0.366432 8.74532 1.07837C7.02654 1.79031 5.46482 2.83382 4.14932 4.14932C1.49256 6.80608 0 10.4094 0 14.1667C0 20.4283 4.06583 25.7408 9.69 27.625C10.3983 27.7383 10.625 27.2992 10.625 26.9167C10.625 26.5908 10.625 25.6983 10.625 24.5225C6.70083 25.3725 5.865 22.6242 5.865 22.6242C5.21333 20.9808 4.2925 20.5417 4.2925 20.5417C3.00333 19.6633 4.39167 19.6917 4.39167 19.6917C5.80833 19.7908 6.55917 21.1508 6.55917 21.1508C7.79167 23.3042 9.87417 22.6667 10.6817 22.3267C10.8092 21.4058 11.1775 20.7825 11.5742 20.4283C8.42917 20.0742 5.12833 18.8558 5.12833 13.4583C5.12833 11.8858 5.66667 10.625 6.5875 9.61916C6.44583 9.265 5.95 7.79167 6.72917 5.87917C6.72917 5.87917 7.91917 5.49667 10.625 7.32417C11.7442 7.0125 12.9625 6.85667 14.1667 6.85667C15.3708 6.85667 16.5892 7.0125 17.7083 7.32417C20.4142 5.49667 21.6042 5.87917 21.6042 5.87917C22.3833 7.79167 21.8875 9.265 21.7458 9.61916C22.6667 10.625 23.205 11.8858 23.205 13.4583C23.205 18.87 19.89 20.06 16.7308 20.4142C17.2408 20.8533 17.7083 21.7175 17.7083 23.035C17.7083 24.9333 17.7083 26.4633 17.7083 26.9167C17.7083 27.2992 17.935 27.7525 18.6575 27.625C24.2817 25.7267 28.3333 20.4283 28.3333 14.1667C28.3333 12.3063 27.9669 10.4641 27.255 8.74532C26.543 7.02654 25.4995 5.46482 24.184 4.14932C22.8685 2.83382 21.3068 1.79031 19.588 1.07837C17.8692 0.366432 16.0271 0 14.1667 0Z" fill="white"/>
</svg>
